# xmcd
#
# Track frame offsets:
#	150
#	12733
#	25688
#	38420
#	53254
#	68624
#	81133
#	95451
#	109871
#	124244
#
# Disc length: 1813 seconds
#
# Revision: 0
# Processed by: cddbd v1.5.2PL0 Copyright (c) Steve Scherf et al.
# Submitted via: EasyCDDAExtractor 16.0.6.1
#
DISCID=7007130a
DTITLE=Συλλογικός δίσκος - Λαϊκό τραγούδι 1954-1967, 1966-1
DYEAR=2008
DGENRE=Λαϊκή
TTITLE0=Καζαντζίδης Στέλιος-Μαρινέλλα - Με τον βοριά [Γιώργος Ζαμπέτας-Δημήτρη
TTITLE0=ς Χριστοδούλου]
TTITLE1=Λίντα Μαίρη - Άκου τ'  αηδόνια [Γιώργος Ζαμπέτας-Χαράλαμπος Βασιλειάδη
TTITLE1=ς]
TTITLE2=Μοσχολιού Βίκυ - Πήρα απ'  τη νιότη χρώματα [Απόστολος Καλδάρας-Ευτ. Π
TTITLE2=απαγιαννοπούλου]
TTITLE3=Μοσχολιού Βίκυ-χορωδία - Ο Λευτέρης [Σταύρος Ξαρχάκος-Νίκος Γκάτσος]
TTITLE4=Τσετίνης Μπάμπης-Διαμάντη Λίτσα - Ό,τι αρχίζει ωραίο [Σπύρος Σκορδίλης
TTITLE4=Λέντα Ντάϊνα]
TTITLE5=Καζαντζίδης Στέλιος-Μαρινέλλα - Παράπονα και κλάματα [Θεόδωρος Δερβενι
TTITLE5=ώτης-Κώστας Βίρβος]
TTITLE6=Αγγελόπουλος Μανώλης-Βασιλείου Αννούλα - Η γυναίκα η μουρμούρα [Βασίλη
TTITLE6=ς Τσιτσάνης]
TTITLE7=Περπινιάδης Βαγγέλης-Νόρμα Ρία - Θά 'ρθει το βράδυ βροχερό [Χρήστος Λε
TTITLE7=οντής-Γιάννης Κακουλίδης]
TTITLE8=Λαμπράκη Χαρούλα - Στου κάτω κόσμου τα σκαλιά [Απόστολος Καλδάρας-Ουρα
TTITLE8=νία Λιανδράκη]
TTITLE9=Τσαουσάκης Πρόδρομος - Όπου πατώ το πόδι μου [Πρόδρομος Τσαουσάκης-Λεο
TTITLE9=νάρδος Μπουρνέλης]
EXTD=
EXTT0=
EXTT1=
EXTT2=
EXTT3=
EXTT4=
EXTT5=
EXTT6=
EXTT7=
EXTT8=
EXTT9=
PLAYORDER=
